<?xml version="1.0" standalone="no"?>
<!DOCTYPE svg PUBLIC "-//W3C//DTD SVG 20010904//EN"
 "http://www.w3.org/TR/2001/REC-SVG-20010904/DTD/svg10.dtd">
<svg version="1.0" xmlns="http://www.w3.org/2000/svg"
 width="260.000000pt" height="260.000000pt" viewBox="0 0 260.000000 260.000000"
 preserveAspectRatio="xMidYMid meet">
<metadata>
Created by potrace 1.11, written by Peter Selinger 2001-2013
</metadata>
<g transform="translate(0.000000,260.000000) scale(0.100000,-0.100000)"
fill="#000000" stroke="none">
<path d="M363 2295 c-84 -36 -66 -133 33 -171 25 -9 49 -25 54 -35 15 -26 13
-1551 -1 -1582 -7 -16 -26 -29 -51 -36 -97 -30 -121 -127 -41 -169 15 -9 144
-12 453 -12 508 0 500 -1 500 96 0 43 -26 70 -82 84 -24 6 -50 14 -58 19 -40
21 -40 25 -40 939 l0 882 -367 0 c-290 -1 -375 -4 -400 -15z"/>
<path d="M1230 2216 l0 -94 28 -7 c50 -12 94 -47 113 -89 17 -37 19 -69 19
-299 0 -281 -4 -305 -55 -345 -16 -12 -45 -25 -67 -28 l-38 -7 0 -87 0 -88 28
-7 c50 -10 93 -44 112 -88 17 -37 20 -67 20 -248 0 -114 4 -230 10 -259 25
-132 103 -235 218 -288 48 -22 74 -27 174 -30 98 -4 127 -1 186 17 117 35 232
137 277 245 21 51 19 80 -11 115 -39 47 -83 43 -136 -10 -22 -22 -44 -37 -48
-32 -5 4 -10 98 -12 208 -3 196 -4 201 -31 257 -48 98 -164 179 -297 208 -98
21 -98 21 -27 46 215 75 329 201 358 398 25 167 -27 335 -135 433 -61 56 -165
114 -246 137 -57 17 -253 35 -372 36 l-68 0 0 -94z"/>
</g>
</svg>
